<svg xmlns="http://www.w3.org/2000/svg" xmlns:xlink="http://www.w3.org/1999/xlink" width="1000" zoomAndPan="magnify" viewBox="0 0 375 374.999991" height="1000" preserveAspectRatio="xMidYMid meet" version="1.0"><defs><clipPath id="70f0016139"><path d="M 204 63 L 339 63 L 339 220 L 204 220 Z M 204 63 " clip-rule="nonzero"/></clipPath><clipPath id="337c159fef"><path d="M 89.277344 129.890625 L 272.859375 23.367188 L 373.363281 196.570312 L 189.78125 303.09375 Z M 89.277344 129.890625 " clip-rule="nonzero"/></clipPath><clipPath id="98ae0ebf5a"><path d="M 89.277344 129.890625 L 272.859375 23.367188 L 373.363281 196.570312 L 189.78125 303.09375 Z M 89.277344 129.890625 " clip-rule="nonzero"/></clipPath><clipPath id="dbb29ccdaf"><path d="M 237 118 L 374 118 L 374 274 L 237 274 Z M 237 118 " clip-rule="nonzero"/></clipPath><clipPath id="43efd115f5"><path d="M 89.277344 129.890625 L 272.859375 23.367188 L 373.363281 196.570312 L 189.78125 303.09375 Z M 89.277344 129.890625 " clip-rule="nonzero"/></clipPath><clipPath id="2bf016bf78"><path d="M 89.277344 129.890625 L 272.859375 23.367188 L 373.363281 196.570312 L 189.78125 303.09375 Z M 89.277344 129.890625 " clip-rule="nonzero"/></clipPath><clipPath id="66bf9bedf3"><path d="M 171.359375 156.738281 L 305.566406 78.863281 L 373.804688 196.464844 L 239.601562 274.339844 Z M 171.359375 156.738281 " clip-rule="nonzero"/></clipPath><clipPath id="38a159944e"><path d="M 171.359375 156.738281 L 305.195312 79.082031 L 373.328125 196.503906 L 239.496094 274.160156 Z M 171.359375 156.738281 " clip-rule="nonzero"/></clipPath><clipPath id="7fc2da6320"><path d="M 173 121 L 309 121 L 309 276 L 173 276 Z M 173 121 " clip-rule="nonzero"/></clipPath><clipPath id="590d152161"><path d="M 89.277344 129.890625 L 272.859375 23.367188 L 373.363281 196.570312 L 189.78125 303.09375 Z M 89.277344 129.890625 " clip-rule="nonzero"/></clipPath><clipPath id="3a1dd178cd"><path d="M 89.277344 129.890625 L 272.859375 23.367188 L 373.363281 196.570312 L 189.78125 303.09375 Z M 89.277344 129.890625 " clip-rule="nonzero"/></clipPath><clipPath id="57fd1e972c"><path d="M 36 156 L 170 156 L 170 313 L 36 313 Z M 36 156 " clip-rule="nonzero"/></clipPath><clipPath id="f534deaf26"><path d="M 285.175781 246.5625 L 100.753906 351.625 L 1.628906 177.628906 L 186.050781 72.566406 Z M 285.175781 246.5625 " clip-rule="nonzero"/></clipPath><clipPath id="1eb23135d7"><path d="M 285.175781 246.5625 L 100.753906 351.625 L 1.628906 177.628906 L 186.050781 72.566406 Z M 285.175781 246.5625 " clip-rule="nonzero"/></clipPath><clipPath id="2547b62145"><path d="M 1 101 L 137 101 L 137 257 L 1 257 Z M 1 101 " clip-rule="nonzero"/></clipPath><clipPath id="904b1c5d72"><path d="M 285.175781 246.5625 L 100.753906 351.625 L 1.628906 177.628906 L 186.050781 72.566406 Z M 285.175781 246.5625 " clip-rule="nonzero"/></clipPath><clipPath id="2df3a61ab7"><path d="M 285.175781 246.5625 L 100.753906 351.625 L 1.628906 177.628906 L 186.050781 72.566406 Z M 285.175781 246.5625 " clip-rule="nonzero"/></clipPath><clipPath id="6ec81d681f"><path d="M 203.308594 219.0625 L 68.488281 295.871094 L 1.183594 177.730469 L 136.003906 100.925781 Z M 203.308594 219.0625 " clip-rule="nonzero"/></clipPath><clipPath id="11356ae07d"><path d="M 203.308594 219.0625 L 68.863281 295.65625 L 1.664062 177.699219 L 136.109375 101.105469 Z M 203.308594 219.0625 " clip-rule="nonzero"/></clipPath><clipPath id="2ede46842b"><path d="M 66 100 L 202 100 L 202 255 L 66 255 Z M 66 100 " clip-rule="nonzero"/></clipPath><clipPath id="995a8a4ff2"><path d="M 285.175781 246.5625 L 100.753906 351.625 L 1.628906 177.628906 L 186.050781 72.566406 Z M 285.175781 246.5625 " clip-rule="nonzero"/></clipPath><clipPath id="54ce78991b"><path d="M 285.175781 246.5625 L 100.753906 351.625 L 1.628906 177.628906 L 186.050781 72.566406 Z M 285.175781 246.5625 " clip-rule="nonzero"/></clipPath></defs><g clip-path="url(#70f0016139)"><g clip-path="url(#337c159fef)"><g clip-path="url(#98ae0ebf5a)"><path fill="#8c52ff" d="M 231.242188 204.3125 L 230.851562 108.28125 L 312.414062 155.019531 L 338.480469 139.84375 L 204.535156 63.085938 L 205.175781 219.492188 L 231.242188 204.3125 " fill-opacity="1" fill-rule="nonzero"/></g></g></g><g clip-path="url(#dbb29ccdaf)"><g clip-path="url(#43efd115f5)"><g clip-path="url(#2bf016bf78)"><g clip-path="url(#66bf9bedf3)"><g clip-path="url(#38a159944e)"><path fill="#5e17eb" d="M 237.511719 118.535156 L 237.632812 148.722656 L 320.957031 196.472656 L 239.78125 243.738281 L 239.902344 273.925781 L 373.214844 196.304688 L 237.511719 118.535156 " fill-opacity="1" fill-rule="nonzero"/></g></g></g></g></g><g clip-path="url(#7fc2da6320)"><g clip-path="url(#590d152161)"><g clip-path="url(#3a1dd178cd)"><path fill="#5e17eb" d="M 282.707031 182.179688 L 199.636719 230.382812 L 199.25 136.378906 L 173.058594 121.367188 L 173.691406 275.367188 L 308.65625 197.050781 L 282.707031 182.179688 " fill-opacity="1" fill-rule="nonzero"/></g></g></g><g clip-path="url(#57fd1e972c)"><g clip-path="url(#f534deaf26)"><g clip-path="url(#1eb23135d7)"><path fill="#8c52ff" d="M 143.804688 171.015625 L 143.4375 267.046875 L 62.246094 219.664062 L 36.058594 234.632812 L 169.390625 312.449219 L 169.992188 156.042969 L 143.804688 171.015625 " fill-opacity="1" fill-rule="nonzero"/></g></g></g><g clip-path="url(#2547b62145)"><g clip-path="url(#904b1c5d72)"><g clip-path="url(#2df3a61ab7)"><g clip-path="url(#6ec81d681f)"><g clip-path="url(#11356ae07d)"><path fill="#5e17eb" d="M 136.859375 256.742188 L 136.976562 226.554688 L 54.035156 178.144531 L 135.582031 131.523438 L 135.699219 101.335938 L 1.777344 177.898438 L 136.859375 256.742188 " fill-opacity="1" fill-rule="nonzero"/></g></g></g></g></g><g clip-path="url(#2ede46842b)"><g clip-path="url(#995a8a4ff2)"><g clip-path="url(#54ce78991b)"><path fill="#5e17eb" d="M 92.167969 192.742188 L 175.617188 145.199219 L 175.261719 239.203125 L 201.332031 254.417969 L 201.921875 100.421875 L 66.339844 177.664062 L 92.167969 192.742188 " fill-opacity="1" fill-rule="nonzero"/></g></g></g></svg>